<svg width="50" height="50" viewBox="0 0 50 50" fill="none" xmlns="http://www.w3.org/2000/svg">
<path d="M49.2344 0H0V49.2344H49.2344V0Z" fill="#25408F"/>
<path d="M36.5405 17.1087L29.7465 10.3147L28.2057 11.8555L29.1398 12.7896C29.97 13.6199 30.4251 14.7216 30.4251 15.9032C30.4251 17.0847 29.97 18.1865 29.1398 19.0167C28.3095 19.847 27.2077 20.3021 26.0262 20.3021C24.8446 20.3021 23.7429 19.847 22.9126 19.0167L21.9785 18.0827C20.7331 16.8372 19.0885 16.1586 17.3321 16.1586C15.5757 16.1586 13.9232 16.8452 12.6857 18.0827C10.123 20.6454 10.123 24.8208 12.6857 27.3835L19.4797 34.1775L24.2219 38.9197L25.7627 37.3789L21.0205 32.6366L20.0864 31.7026C18.37 29.9861 18.37 27.1999 20.0864 25.4834C21.8029 23.7669 24.5891 23.7669 26.3056 25.4834L27.2397 26.4175C28.525 27.7028 30.2016 28.3415 31.8861 28.3415C33.5706 28.3415 35.2551 27.7028 36.5325 26.4175C37.7779 25.172 38.4565 23.5274 38.4565 21.7711C38.4565 20.0147 37.7699 18.3621 36.5325 17.1246L36.5405 17.1087ZM18.5536 23.9346C17.3561 25.1321 16.7174 26.6729 16.6376 28.2457L14.2265 25.8347C12.5101 24.1182 12.5101 21.332 14.2265 19.6155C15.0568 18.7852 16.1585 18.3302 17.3401 18.3302C18.5217 18.3302 19.6234 18.7852 20.4537 19.6155L22.8647 22.0265C21.2999 22.1064 19.7511 22.7451 18.5536 23.9426V23.9346ZM34.9997 24.8687C33.2832 26.5851 30.497 26.5851 28.7805 24.8687L26.3775 22.4656C28.0061 22.3858 29.523 21.7072 30.6806 20.5496C31.8382 19.392 32.5168 17.8751 32.5966 16.2465L34.9997 18.6495C35.83 19.4798 36.285 20.5815 36.285 21.7631C36.285 22.9446 35.83 24.0464 34.9997 24.8767V24.8687Z" fill="white"/>
</svg>
